<svg width="32" height="32" viewBox="0 0 32 32" fill="none" xmlns="http://www.w3.org/2000/svg">
<path d="M30.9736 19.1457C29.1971 27.4541 21.0217 32.7492 12.7132 30.9728C4.40481 29.1961 -0.890339 21.0207 0.886209 12.7123C2.66276 4.40383 10.8382 -0.891315 19.1467 0.885232C27.4551 2.66178 32.7503 10.8373 30.9736 19.1457Z" fill="#D94A33"/>
<path fill-rule="evenodd" clip-rule="evenodd" d="M13.8172 25.8089C8.26496 24.6217 4.7264 19.1583 5.9136 13.6061L3.76882 13.1474L3.75518 13.1445C2.31309 19.8888 6.61137 26.5252 13.3556 27.9673C20.0999 29.4095 26.7363 25.1111 28.1784 18.3668L28.1648 18.3639L26.0201 17.9053C24.8329 23.4576 19.3695 26.9961 13.8172 25.8089Z" fill="white"/>
<path d="M15.9979 9.2735L16.4008 7.38934L10.0632 6.03418L8.78125 12.0293L11.008 12.5054L11.3468 10.921L14.9438 11.6901L15.3468 9.80597L11.7497 9.03682L11.887 8.39448L15.9979 9.2735Z" fill="white"/>
<path d="M18.0772 12.2256L17.7109 13.9385L24.0486 15.2936L25.3305 9.29849L18.9928 7.94336L18.6266 9.65622L22.7375 10.5352L22.6185 11.0919L18.5075 10.2129L18.1962 11.6689L22.3071 12.5479L22.1881 13.1046L18.0772 12.2256Z" fill="white"/>
</svg>
