<svg width="1024" height="1371" viewBox="0 0 1024 1371" fill="none" xmlns="http://www.w3.org/2000/svg">
<path d="M600.89 7.85602C322.466 -41.2594 56.9711 144.686 7.85575 423.11C-4.39217 492.577 -1.9797 561.177 12.8044 625.881C12.8044 625.881 12.8044 625.881 12.8044 625.943C32.8464 726.462 88.1476 801.373 122.293 848.57C165.78 908.635 180.811 929.666 180.811 958.121C180.811 1044.6 177.347 1025.55 177.347 1063.9C177.347 1091.24 186.44 1109.86 202.956 1109.86C219.473 1109.86 226.091 1090.87 226.091 1062.79C226.091 1025.42 217.617 976.802 217.617 959.853C217.617 951.502 219.967 935.914 252.381 953.42C252.69 953.606 253.062 953.791 253.371 953.915C276.135 967.276 300.136 978.906 325.188 988.679C339.972 994.679 355.499 1000.06 371.458 1004.27C371.891 1004.39 372.324 1004.51 372.757 1004.64C373.809 1004.89 374.86 1005.26 375.912 1005.5C380.056 1006.56 384.572 1007.67 389.211 1008.84C390.263 1009.09 391.315 1009.4 392.366 1009.65C431.027 1019.61 480.328 1035.88 480.328 1078.06C480.328 1126.56 472.349 1168.81 472.349 1214.59C472.349 1260.36 487.442 1264.5 498.391 1264.5C510.515 1264.5 522.021 1255.41 522.021 1213.41C522.021 1171.41 512 1120.75 512 1075.78C512 1037.73 583.508 1012.06 633.427 1029.81C683.347 1047.57 696.461 1081.03 696.461 1125.32C696.461 1169.61 683.904 1254.11 683.904 1284.18C683.904 1314.24 693.43 1370.28 729.184 1370.28C764.938 1370.28 769.206 1315.35 769.206 1285.85C769.206 1227.08 746.999 1097.8 746.999 1068.54C746.999 1039.28 760.917 966.472 818.321 927.13C875.664 887.85 888.221 928.8 888.221 958.925C888.221 989.05 875.788 1038.1 875.788 1068.85C875.788 1099.59 887.293 1127.8 917.356 1127.8C947.419 1127.8 953.234 1095.88 953.234 1066.74C953.234 1031.48 937.213 929.481 937.213 896.82C937.213 818.445 952.739 796.919 979.771 720.338C979.833 720.153 979.895 719.905 979.957 719.72C996.473 682.481 1008.84 642.706 1016.21 600.767C1065.26 322.467 879.314 56.9714 600.89 7.85602Z" fill="#E54A30"/>
<path fill-rule="evenodd" clip-rule="evenodd" d="M453.606 843.127C267.537 810.342 143.326 632.871 176.11 446.802L104.231 434.121H103.798C63.9616 660.027 214.834 875.602 440.863 915.439C666.893 955.276 882.407 804.404 922.244 578.374H921.811L849.931 565.631C817.147 751.7 639.676 875.912 453.606 843.127Z" fill="#FAFAF0"/>
<path d="M518.99 229.061L507.855 292.218L507.732 292.28L369.973 267.97L366.2 289.496L486.762 310.776L475.627 373.933L355.066 352.654L345.725 405.728L271.124 392.552L306.569 191.637L518.99 229.061Z" fill="#FAFAF0"/>
<path d="M570.456 445.317L580.601 387.913V387.975L718.359 412.285L721.637 393.604L583.879 369.293L592.477 320.487L730.235 344.798L733.514 326.116L595.756 301.806L605.901 244.402L818.26 281.826L782.815 482.741L570.456 445.317Z" fill="#FAFAF0"/>
</svg>
